<svg version="1.0" id="katman_1" xmlns="http://www.w3.org/2000/svg" xmlns:xlink="http://www.w3.org/1999/xlink" x="0px" y="0px"
	 viewBox="0 0 118.3 82.1" style="enable-background:new 0 0 118.3 82.1;" xml:space="preserve">
<g id="logo_x2F_24_x2F_text_x2F_color_x2F_gofood">
	<g id="Group" transform="translate(0.000000, 1.461720)">
		<path id="Shape" fill-rule="evenodd" clip-rule="evenodd" fill="#FFFFFF" d="M18.9,39.3c0,1.1-0.6,2-1.5,2.5c-0.4,0.2-0.7,0.7-0.7,1.2l-0.1,1.6c0,0.4-0.4,0.8-0.8,0.8
			c-0.4,0-0.8-0.3-0.8-0.8L15,43c0-0.5-0.3-0.9-0.7-1.2c-0.9-0.6-1.5-1.5-1.5-2.7c0-1.1,0-2.2,0.2-3.3c0.1-0.4,0.4-0.7,0.8-0.6
			c0.4,0.1,0.6,0.4,0.6,0.8c-0.1,0.8-0.2,1.3-0.2,2.3c0,0.3,0.2,0.5,0.5,0.5c0.3,0,0.5-0.2,0.5-0.5l0-2.8c0-0.4,0.4-0.8,0.8-0.7
			c0.3,0.1,0.6,0.4,0.6,0.8l0,2.8c0,0.3,0.2,0.5,0.5,0.5c0.3,0,0.5-0.2,0.5-0.5c0-1-0.1-1.5-0.2-2.3c-0.1-0.4,0.2-0.8,0.6-0.8
			c0.4-0.1,0.7,0.2,0.8,0.6C18.9,37,19,38.2,18.9,39.3z M22.8,34.7c1.8,0,2.7,2.8,2.7,4.6c0,1-0.5,1.8-1.3,2.3
			c-0.4,0.2-0.6,0.6-0.6,1.1l-0.1,1.9c0,0.4-0.4,0.8-0.8,0.8c-0.4,0-0.8-0.3-0.8-0.8l-0.1-1.9c0-0.4-0.3-0.8-0.6-1.1
			c-0.7-0.5-1.3-1.4-1.3-2.3C20.1,37.5,21,34.7,22.8,34.7z"/>
		<circle id="Oval" fill="#EE2737" cx="19.6" cy="40.1" r="9.6"/>
		<path id="Shape_00000178911331960466523860000008627613806448962698_" fill="#FFFFFF" d="M19.3,39.3c0,1-0.6,2-1.5,2.5
			c-0.4,0.2-0.7,0.7-0.7,1.2l-0.1,1.6c0,0.4-0.3,0.8-0.8,0.8c-0.4,0-0.8-0.4-0.8-0.8L15.4,43c0-0.5-0.3-0.9-0.7-1.2
			c-0.9-0.6-1.5-1.6-1.5-2.7c0-1.1,0-2.2,0.2-3.3c0-0.2,0.1-0.4,0.3-0.5c0.2-0.1,0.3-0.2,0.5-0.1c0.4,0.1,0.6,0.5,0.6,0.8
			c-0.1,0.7-0.2,1.5-0.2,2.3c0,0.1,0,0.3,0.1,0.3s0.2,0.1,0.3,0.2c0.3,0,0.5-0.2,0.5-0.5l0-2.8c0-0.2,0.1-0.4,0.2-0.6
			c0.2-0.1,0.4-0.2,0.6-0.2c0.4,0.1,0.6,0.4,0.6,0.8l0,2.8c0,0.2,0.1,0.3,0.2,0.4c0.2,0.1,0.3,0.1,0.5,0c0.2-0.1,0.2-0.3,0.2-0.4
			c0-0.8-0.1-1.5-0.2-2.3c-0.1-0.4,0.2-0.8,0.6-0.8c0.2,0,0.4,0,0.5,0.1s0.2,0.3,0.3,0.5C19.3,37,19.4,38.1,19.3,39.3L19.3,39.3z
			 M23.2,34.7c1.8,0,2.7,2.8,2.7,4.6c0,0.9-0.5,1.8-1.3,2.3c-0.4,0.2-0.6,0.6-0.6,1.1L24,44.6c0,0.3-0.1,0.5-0.4,0.7
			c-0.2,0.1-0.5,0.1-0.8,0c-0.2-0.1-0.4-0.4-0.4-0.7l-0.1-1.9c0-0.4-0.3-0.8-0.6-1.1c-0.8-0.5-1.3-1.4-1.3-2.3
			C20.5,37.5,21.4,34.7,23.2,34.7z"/>
		<path id="Shape_00000100374155009975922090000005333144565429884596_" d="M36.8,44.9c0.8,1.2,2.2,1.8,3.6,1.8
			c1.7,0,2.9-1.1,2.9-2.5v-0.8h0c-0.9,0.9-2.2,1.4-3.4,1.3c-2,0.1-3.9-1-5-2.7c-1-1.7-1.1-3.9-0.1-5.6c1-1.8,2.9-2.8,4.9-2.8
			c1.3-0.1,2.6,0.4,3.5,1.2h0v-1h2.9V44c0,3-2.4,5.1-5.8,5.1c-2.2,0.1-4.3-0.8-5.7-2.5L36.8,44.9z M43.2,38.4c0-1.2-1.4-2.3-2.9-2.3
			c-1.9,0-3.2,1.2-3.2,2.9c-0.1,0.8,0.3,1.6,0.9,2.2c0.6,0.6,1.4,0.9,2.3,0.8c1.7,0,3-1,3-2.4V38.4z M53.6,33.3c3.5,0,6,2.5,6,5.6
			c0,3.2-2.5,5.6-6,5.6c-2.1,0.1-4.1-0.9-5.2-2.7c-1.1-1.8-1.1-4.1,0-5.9C49.5,34.3,51.5,33.2,53.6,33.3L53.6,33.3z M53.6,36
			c-1.7,0-3,1.4-3,3c0,1.7,1.4,3,3,3c1.7,0,3-1.4,3-3c0-0.8-0.3-1.6-0.9-2.2C55.3,36.2,54.5,35.9,53.6,36z M62.5,36.2H60v-2.5h2.6
			v-1.1c0-1.9,1.3-3,3.5-3h2.8v2.6h-2.4c-0.6,0-0.9,0.3-0.9,0.8v0.7h4v2.5h-4v8.1h-3V36.2z M75.6,33.3c3.5,0,6,2.5,6,5.6
			c0,3.2-2.5,5.6-6,5.6c-2.1,0.1-4.1-0.9-5.2-2.7c-1.1-1.8-1.1-4.1,0-5.9S73.5,33.2,75.6,33.3L75.6,33.3z M75.6,36c-1.7,0-3,1.4-3,3
			c0,1.7,1.4,3,3,3c1.7,0,3-1.4,3-3c0-0.8-0.3-1.6-0.9-2.2C77.3,36.2,76.5,35.9,75.6,36L75.6,36z M88.9,33.3c3.5,0,6,2.5,6,5.6
			c0,3.2-2.5,5.6-6,5.6c-2.1,0.1-4.1-0.9-5.2-2.7c-1.1-1.8-1.1-4.1,0-5.9C84.8,34.3,86.8,33.2,88.9,33.3L88.9,33.3z M88.9,36
			c-1.7,0-3,1.4-3,3c0,1.7,1.4,3,3,3c1.7,0,3-1.4,3-3c0-0.8-0.3-1.6-0.9-2.2C90.5,36.2,89.7,35.9,88.9,36z M101.8,33.3
			c1.3-0.1,2.5,0.4,3.5,1.1h0v-4.9h3v14.7h-2.8v-1h0c-1,0.9-2.3,1.4-3.6,1.3c-1.5,0.1-3-0.5-4.1-1.6c-1.1-1.1-1.7-2.6-1.7-4.1
			c0-1.5,0.6-3,1.6-4C98.8,33.9,100.3,33.3,101.8,33.3L101.8,33.3z M105.3,38.3c0-1.3-1.4-2.3-3-2.3c-0.8-0.1-1.7,0.2-2.3,0.8
			c-0.6,0.6-0.9,1.4-0.9,2.2c0,1.8,1.2,3,3.2,3c1.7,0,3-1,3-2.4V38.3z"/>
	</g>
</g>
</svg>
