
<svg version="1.0" id="Layer_1" x="0px" y="0px"
	 viewBox="0 0 968 609.9" style="enable-background:new 0 0 968 609.9;" xml:space="preserve">
<path fill="#009C49" d="M554.8,326.9h-42.5V374h-20.9V253.4H559v20.5h-46.8v32.7h42.5L554.8,326.9z M637.3,319.8
	c0-15.2-10.6-25.5-25.4-25.5c-14.8,0-25.4,10.3-25.4,25.5v8c0,15.2,10.6,26,25.4,26s25.4-10.8,25.4-26V319.8z M659,319.8v8
	c0,27.6-18.5,46.2-47,46.2s-47.1-18.6-47.1-46.2v-8c0-27.6,18.5-45.8,47-45.8S659,292.3,659,319.8L659,319.8z M737.3,319.8
	c0-15.2-10.6-25.5-25.4-25.5s-25.4,10.3-25.4,25.5v8c0,15.2,10.7,26,25.4,26s25.4-10.8,25.4-26L737.3,319.8z M759,319.8v8
	c0,27.6-18.5,46.2-47,46.2s-47.1-18.6-47.1-46.2v-8c0-27.6,18.5-45.8,47-45.8S759,292.3,759,319.8L759,319.8z M457.6,287.9
	c-8.3-8.3-19.6-13-31.3-13c-7.7,0.1-15.3,2.3-21.9,6.3c-9.8,6.5-17.9,13.5-32.4,32.1v13.3c12.3-15.9,24-28.4,32.8-35.3
	c6.2-4.8,13.7-7.4,21.5-7.5c19.2,0,35.5,16.1,35.5,35.1v8c0,9.4-3.8,18.4-10.5,24.9c-6.6,6.6-15.6,10.2-24.9,10.2
	c-15.8,0-29.7-10.7-33.5-25.4l-6.4,7.6c4.6,15.4,21.4,26.7,39.8,26.7c11.8,0,23-4.7,31.3-13c8.4-8.2,13.1-19.4,13.1-31.1v-8
	C470.7,307.3,466,296.1,457.6,287.9z M264.7,283.9c5.7-0.1,11.2,1.3,16.2,4c1.9-2.3,4-4.6,6.2-6.7c-5.1-3.8-13.6-6.2-22.4-6.2
	c-12.5,0-23.9,4.5-32,12.6s-12.5,19.2-12.5,31.5v52.1h9v-52.1C229.2,298.4,243.8,284,264.7,283.9L264.7,283.9z M350.3,371.2V319
	c-0.3-15.9-13.4-28.6-29.4-28.3c-15.5,0.3-28,12.8-28.3,28.3v8c0,15.5,13.2,28.6,28.8,28.6c4.3,0,10.1-1,13.7-4v-9.4
	c-3.9,2.9-8.8,4.5-13.7,4.5c-10.8,0.2-19.7-8.5-19.8-19.2c0-0.1,0-0.3,0-0.4v-8c0.2-10.9,9.3-19.6,20.3-19.4
	c10.6,0.2,19.1,8.8,19.4,19.4v52.1L350.3,371.2z M109,313.9v2.9c-0.2,31.4,25,57.1,56.5,57.3c0.3,0,0.5,0,0.8,0
	c12.4,0,23.3-2.8,32.6-8.2c7.6-4.5,11-9.1,11.3-9.5v-48.1H164v8.9h37.1v36.4l0,0c-4.4,4.3-14.6,11.5-34.9,11.5
	c-26.3,0.3-47.9-20.7-48.3-47.1c0-0.4,0-0.9,0-1.3v-2.8c0-12.4,5.6-24.8,15.4-33.9c10-9.3,23.1-14.5,36.8-14.5
	c12.8,0,21.7,1.9,28.8,6.2v-10c-7.4-3.1-16.3-4.5-28.8-4.5C137,257.2,109,283.1,109,313.9z M264.7,299.4c3-0.1,5.9,0.5,8.6,1.7
	c1.1-2.7,2.4-5.3,4-7.8c-2.5-1.7-8.3-2.8-12.6-2.8c-16.4,0-28.8,12.3-28.8,28.6v52.1h9v-52.1C244.9,307.5,253,299.4,264.7,299.4
	L264.7,299.4z M199.1,288.9v-10.6c-8.1-4.3-17-6.3-28.8-6.3c-11.9-0.1-23.3,4.3-32.1,12.3c-8.7,8-13.5,18.4-13.5,29.5v2.9
	c0,23,18.6,41.7,41.6,41.8c18.7,0,26.3-6.1,28.2-8v-26.8H164v8.9h22v13.4h-0.1c-2.8,1.1-8.7,3.5-19.8,3.5c-8.6,0-16.9-3.4-23-9.5
	c-6.2-6.2-9.6-14.6-9.5-23.3v-2.8c0-17.8,16.8-32.9,36.6-32.9C184,281.1,192.1,283.3,199.1,288.9L199.1,288.9z M411.7,305.7
	c3.8-3.9,9.1-6.2,14.6-6.4c10.8-0.2,19.7,8.5,19.8,19.2c0,0.1,0,0.2,0,0.3v8c0.1,10.8-8.6,19.6-19.4,19.7c-0.1,0-0.3,0-0.4,0
	c-5.4,0-10.6-2.9-14.6-8.2c-3.7-4.9-5.8-10.7-6.3-16.7l-7.3,8.9c1.4,6.8,4.9,13,10,17.8c5,4.6,11.5,7.2,18.2,7.3
	c15.9,0,28.8-12.7,28.8-28.6v-8.1c-0.1-7.6-3.2-14.8-8.6-20.1c-5.4-5.4-12.6-8.5-20.3-8.5c-4.8,0-12.3,1.7-21.3,9.8l0,0
	c-2.4,2.4-8.1,8-11.5,12c-5.8,6.3-14.2,15.8-21.4,25.2v14c8-10.2,12.5-15.8,20-24.4C398.7,319.2,407,309.7,411.7,305.7L411.7,305.7z
	 M277,327.1c0,11.7,4.8,22.9,13.1,31.1c8.3,8.3,19.6,13,31.3,13c4.7,0.1,9.4-0.9,13.7-2.8v-8.9c-4.3,1.8-9,2.7-13.7,2.8
	c-19.2,0-35.5-16.1-35.5-35.2v-8c0-19.1,16.2-35.2,35.5-35.2c9.4-0.1,18.5,3.6,25.1,10.2c6.6,6.6,10.3,15.5,10.3,24.9v52.1h9v-53.9
	c-1.2-24.5-21.9-43.4-46.4-42.3c-11.1,0.5-21.5,5.2-29.4,13c-8.4,8.2-13.1,19.4-13.1,31.1V327.1z M381.2,292.4
	c2.7-3.4,5.7-6.6,9-9.4v-47.2h-9V292.4z M396.9,279.4v-43.5h9v37.4C402.7,274.9,399.7,277,396.9,279.4z M770.8,328.7
	c0,27.1,17.3,45.4,44.2,45.4s44-18.3,44-45.4v-87h-20.5v87c0,14.9-9.7,25.4-23.6,25.4s-23.8-10.4-23.8-25.4v-8
	c0-14.7,9.8-24.8,23.8-24.8c14.1,0,23.6,9.3,23.6,23.1v-33.6c-3-4.5-12.4-9.5-23.6-9.5c-26.9,0-44.2,17.9-44.2,44.8L770.8,328.7z"/>
</svg>
