<svg width="24" height="24" viewBox="0 0 24 24" fill="none" xmlns="http://www.w3.org/2000/svg">
<g clip-path="url(#clip0_403_3148)">
<path d="M17.7621 24C9.63115 24.275 -5.01683 9.74501 1.78416 1.86701L2.93416 0.867012C3.51628 0.304278 4.29657 -0.00661024 5.10618 0.00162435C5.91579 0.00985894 6.6896 0.336554 7.26015 0.911012C7.29099 0.942417 7.31972 0.975823 7.34615 1.01101L9.14615 3.35001C9.69317 3.92885 9.99711 4.69559 9.99525 5.49201C9.99339 6.28843 9.68587 7.05374 9.13615 7.63001L7.97815 9.08601C8.61927 10.6431 9.56157 12.0582 10.751 13.2502C11.9404 14.4422 13.3535 15.3875 14.9091 16.032L16.3731 14.867C16.9569 14.3309 17.7204 14.0329 18.513 14.0318C19.3056 14.0306 20.0699 14.3265 20.6551 14.861L22.9951 16.661C23.0301 16.6874 23.0635 16.7158 23.0951 16.746C23.6722 17.3284 23.996 18.1151 23.996 18.935C23.996 19.7549 23.6722 20.5416 23.0951 21.124L22.1841 22.174C21.6063 22.7582 20.9173 23.2207 20.1578 23.5343C19.3984 23.8479 18.5838 24.0063 17.7621 24ZM5.07115 2.00001C4.92745 1.9999 4.78512 2.0281 4.65232 2.08301C4.51951 2.13792 4.39883 2.21845 4.29715 2.32001L3.14616 3.32001C-2.49984 10.108 14.7771 26.423 20.7201 20.808L21.6321 19.757C21.7405 19.6605 21.8288 19.5435 21.8918 19.4128C21.9548 19.282 21.9913 19.1401 21.9992 18.9952C22.0071 18.8503 21.9862 18.7052 21.9378 18.5684C21.8894 18.4316 21.8144 18.3057 21.7171 18.198L19.3901 16.411C19.3545 16.3848 19.321 16.3557 19.2901 16.324C19.0815 16.1252 18.8043 16.0143 18.5161 16.0143C18.2279 16.0143 17.9508 16.1252 17.7421 16.324C17.7156 16.3509 17.6875 16.3763 17.6581 16.4L15.7001 17.96C15.5642 18.0682 15.4025 18.1391 15.2308 18.1658C15.0591 18.1924 14.8835 18.1739 14.7211 18.112C12.7053 17.361 10.8744 16.1856 9.35245 14.6652C7.83054 13.1448 6.65319 11.3151 5.90015 9.30001C5.83349 9.13538 5.81187 8.95597 5.83753 8.78021C5.86319 8.60446 5.9352 8.43871 6.04615 8.30001L7.60015 6.34401C7.62326 6.31438 7.64832 6.28632 7.67515 6.26001C7.87942 6.054 7.99403 5.77563 7.99403 5.48551C7.99403 5.1954 7.87942 4.91703 7.67515 4.71101C7.64398 4.67991 7.61523 4.64648 7.58915 4.61101L5.80615 2.28701C5.60469 2.10498 5.34268 2.00446 5.07115 2.00501V2.00001Z" fill="#000000"/>
</g>
<defs>
<clipPath id="clip0_403_3148">
<rect width="24" height="24" fill="white"/>
</clipPath>
</defs>
</svg>
