<svg  width="47.91mm" height="87.1098mm" version="1.1" style="shape-rendering:geometricPrecision; text-rendering:geometricPrecision; image-rendering:optimizeQuality; fill-rule:evenodd; clip-rule:evenodd"
viewBox="0 0 3025.15 5500.32">

 <g id="Layer_x0020_1">
  <metadata id="CorelCorpID_0Corel-Layer"/>
  <path class="fil0" d="M2562.85 5340.93c9.66,-82.9 12.93,-169.81 19.91,-253.31 7.19,-86.06 13.05,-170.13 19.88,-256.12 67.47,-849.59 129.39,-1701.12 198.17,-2550.97l59.35 -764.99c7.12,-86.03 6.16,-173.99 -18.21,-250.97 -4.99,-15.75 37.22,-69.62 47.5,-83.92 63.02,-87.58 124.75,-153.53 134.22,-277.16 13.6,-177.44 -69.58,-317.11 -161.71,-388.1 -116.15,-89.5 -273.36,-110.81 -425.33,-38.79 -32.03,15.19 -58.77,31.53 -88.25,48.36 -70.21,40.08 -134.61,64.3 -200.89,4.12 -52.41,-47.58 -80.35,-96.75 -114.64,-160.88 -16.38,-30.62 -28.78,-61.85 -46.26,-90.35 -37.01,-60.34 -77.12,-108.6 -125.68,-149.69 -240.14,-203.2 -550.99,-170.54 -706.54,139.49 -36.97,73.67 -49.3,108.17 -106.64,168.72 -84,88.71 -186.48,95.73 -299.35,37.41 -102.79,-53.12 -209.04,-85.75 -332.97,-80.27 -150.63,6.66 -284.97,66.22 -366.68,185.42 -37.42,54.61 -58.08,136.25 -44.55,217.83 13.97,84.24 87.33,180.57 125.02,426.36 3.03,19.75 6.09,39.87 8.07,59.64 2.18,21.78 8.66,39.77 6.4,61.61 -11.91,114.82 11.52,163.15 18.73,253.32l70.35 892.75c26.4,339.79 52.72,679.27 80.37,1019.38 27.56,339.05 51.6,679.18 80.3,1018.82 14.3,169.13 26.51,339.38 40.11,509.24 6.75,84.22 13.2,170.33 20.18,254.2 1.76,21.19 1.11,28.41 17.35,51.51 9.16,13.02 20.82,23.68 34.91,33.49 177.79,123.86 883.42,123.43 1114.89,123.21 196.9,-0.19 563.25,-20.48 756.53,-69.62 37.15,-9.44 69.59,-18.89 102.31,-34.1 26.31,-12.23 42.64,-23.03 61.15,-42.57 10.8,-11.4 3.57,-8.97 22.02,-13.08zm-2226.08 -4171.47c66.18,16.95 66.61,24.88 111.68,40.13 14.37,-11.04 27.84,-27.05 43.59,-39.77 15.89,-12.82 29.26,-24.55 46.21,-37.51 29.59,-22.64 65.45,-46.5 101.66,-65.81 56.95,-30.37 114.13,-55.26 177.74,-73.45 17.43,-4.98 15.44,-4.5 21.05,-20.72 3.77,-10.91 7.8,-21.65 8.92,-33.4l-32.7 -27.07c-31.35,-25.17 -71.52,-73.11 -120.18,-50.46 -26.19,12.2 -49.61,32.2 -73.2,47.92 -138.55,92.33 -217.73,54.65 -282.13,85.89 -81.16,39.38 -6.64,149.14 -2.63,174.24zm591.73 -223.14c13.97,5.88 21.18,18.25 39.2,16.5 189.35,-18.41 356.98,7.27 527.95,92.55 41.16,20.53 70.97,38.85 108.14,63.69 11.21,7.49 23.79,18.46 34.12,24.08 -1.03,-36.05 -91.01,-236.32 -109.19,-281.91 -18.7,-46.9 -36.6,-94.91 -51.12,-144.89 -15.77,-54.31 -27.85,-107.49 -94.81,-103.15 -45.03,2.92 -109.64,30.62 -149.34,46.42 -47.3,18.83 -93.89,36.49 -145.34,50.75 -46.71,12.95 -122.67,15.2 -142.68,53.54 -11.58,22.19 -9.1,61.78 -9.2,89.09 -0.12,31.6 -5.44,62.73 -7.72,93.32zm-259.12 453.2c10.07,24.51 19.88,45.06 27.92,72.75 24.34,83.72 30.13,185.13 35.21,273.29l260.65 46.35c-2.18,-19.11 -89.54,-360.59 -101.28,-408.49 -4.36,-17.76 -7.12,-43.75 -15.91,-57.59 -48.66,3.61 -182.94,46.5 -206.59,73.69zm665.04 488.65c4.78,12.1 43.35,30.88 93.02,140.93 17.49,38.75 57.12,131.73 80.99,153.6 40.66,-9.36 125.62,-73.19 143.76,-123.57 29.36,-81.53 23.34,-149.86 11.25,-235.36l-329.02 64.4zm-204.14 -323.37l4.66 190.41c7.85,0.9 297.51,-114.68 346.3,-133.85 19.93,-7.84 37.05,-14.59 56.96,-22.42 14.2,-5.58 46.28,-16.11 57.31,-23.13 -7.02,-32.46 -47.65,-97.81 -64.58,-121.7 -26.39,-37.27 -56.8,-67.99 -92.28,-95.01 -62.62,-47.69 -177.4,-93.55 -280.65,-93.62 -6.19,10.78 -32.38,39.07 -33.99,50.23 -1.91,13.2 5.66,224.11 6.27,249.08zm-584.15 -301.38c10.97,11.21 29.17,22.18 41.16,32.53 14.67,12.68 23.1,24.07 37.46,36.83 8.97,-2.96 57.41,-36.85 139.44,-62.61 39.51,-12.41 129.41,-32.97 173.62,-32.08l114.96 461.55 -11.78 -514.22c94.66,-0.04 160.27,-1.65 249.87,19.61 139.63,33.13 244.64,110.43 320.42,226.04 30.02,45.79 73.59,137.61 84.93,191.5l-513.66 201.38c27.4,15.05 101.61,-6.67 133.68,-12.98 32.83,-6.45 392.63,-80.15 407.07,-79.79 4.88,23.22 11.26,45.03 15.77,67.7 4.99,25.06 6.95,49.59 11.77,74.31 15.89,-14.49 23.39,-42.6 80.06,-78.42 8.49,-5.37 27.8,-12.72 33.98,-18.43 -2.08,-107.54 -38.75,-236.11 -92.33,-323.69l-56.56 -84.43c-75.61,-95.51 -180.35,-185.85 -317.98,-241.62 -324.49,-131.49 -650.03,-50.79 -851.88,136.8zm1423.59 492.42c18.68,2.16 48.64,-0.47 69.81,0.5 70.49,3.23 127.64,15.75 193.9,20.76 121.64,9.2 93.37,-29.85 106.75,-173.88 7.71,-83.01 18.82,-165.39 54.79,-229.44 22.31,-39.74 14.62,-14.98 -7.21,-106.86 -9.16,-38.57 -20.46,-76.87 -61.66,-81.47 -51.78,-5.78 -172.75,46.17 -221.09,63.62 -34.56,12.47 -71.17,23.87 -108.82,32.26 -78.32,17.45 -122.94,12.26 -130.94,82.89 -3.98,35.11 -3.59,30.38 10.11,56.16 56.32,106.01 86.06,209.05 94.37,335.45zm-318.93 -810.28c2.45,12.03 51.36,120.65 66.7,185.11 13.43,56.42 1.48,73.66 22.58,103.31l60.1 67.2c13.24,-41.43 58.88,-68.52 107.29,-82.26 25.31,-7.17 52.18,-10.49 78.15,-16.43 25.66,-5.87 50.64,-13.63 75.04,-22.04 60.7,-20.93 153.28,-60.11 213.43,-70.76 57.07,-10.1 65.54,1.69 88.63,0.77 5.84,-50.52 20.8,-110.41 32.59,-159.31 32.85,-136.28 82.7,-178.99 -116.95,-211.2 -55.96,-9.03 -111.5,-15.99 -165.38,-28.57 -51.78,-12.09 -118.93,-41.04 -152.89,-39.34 -75.25,3.78 -72.44,140.42 -248.36,236.63 -21.01,11.49 -47.91,21.8 -60.94,36.89zm-1413.91 218.04c8.58,-9.95 7.2,-10.01 2.54,-22.27 -24.27,-63.87 -25.33,-138.65 22.85,-188 20.14,-20.63 52.7,-37.34 90.65,-45.89 73.87,-16.64 125.77,0.95 216.68,-58.92 77.83,-51.26 133.65,-111.76 241.84,-41.22 7.52,4.91 13.73,10.25 20.43,15.03 7.96,5.68 13.33,2.59 25.17,-1.38 6.9,-69.38 3.74,-86.92 44.19,-127.85 26.87,-27.2 77.55,-40.85 124.42,-49.74 197.19,-37.41 399.82,-209.79 499.53,-27.54 23.26,42.51 66.36,215.25 93.44,252.95 9.07,-3.31 19.67,-11.63 29.75,-16.87 87.17,-45.3 113.8,-69.58 172.55,-160.21 45.85,-70.74 87.42,-112.03 181.44,-94.62 28.23,5.23 50.39,16.31 73.83,21.22 -61.75,-54.31 -112.99,-132.34 -150.93,-210.84 -13.08,-27.06 -26.2,-55.09 -41.74,-79.47 -143.62,-225.43 -438.21,-314.73 -600.09,-56.91 -30.75,48.97 -54.03,108.19 -84.96,157.41 -107.61,171.19 -287.93,253.51 -486.58,154.5 -58.19,-29 -104.1,-52.35 -175.8,-66.61 -70.78,-14.07 -149.49,-13.26 -217.02,6.76 -111.48,33.06 -237.52,122.92 -198.71,272.31 7.79,30 23.14,58.7 34.54,86.57 11.97,29.25 22.07,58.3 32.15,89.07 21.78,66.51 31.86,115.34 45.49,181.5l4.35 11.01zm2081.66 -497.44c62.94,12.63 125.99,29.55 156.99,70.34 41.24,54.27 33.12,112.11 11.59,180.66 -23.68,75.37 -36.29,152.86 -51.04,231.16 -5.05,26.8 0.85,21.41 10.33,42.56 11.89,26.53 19.57,59.2 25.98,88.49l58.88 -38.2c36.29,-20.42 93.64,-48.54 134.25,-59.69 40.25,-11.06 48.91,-5.46 88.01,-3.92l37.65 -55.51c37.46,-54.02 86.38,-106.12 108,-171.73 34.36,-104.23 -5.51,-232.05 -57.88,-295.35 -108.24,-130.83 -255.46,-135 -398.42,-53.11 -57.71,33.05 -58.12,34.85 -115.07,59.08l-9.26 5.21zm-715.96 1604.77c18.59,7.63 40.21,21.18 63.53,30.96 22.42,9.41 43.31,18.78 65.28,29.4 21.85,10.56 40.51,25.64 55.04,39.76 7.79,7.58 15.25,15.82 22.2,26.24 6.96,10.43 10.89,22.3 17.12,31.56 10.43,-3.43 69.02,-40.42 83.41,-49 140.98,-84.05 353.77,-216.45 475.16,-318.23l70.87 -61.27c74.15,-63.8 201.42,-210.55 228.82,-299.91 27.98,-91.23 65.5,-234.93 62.47,-334.03 -0.53,-17.46 -7.75,-37.9 -13.11,-52.69 -8.3,-22.91 -7.19,-31.11 -35.88,-23 -60.89,17.22 -137.03,60.06 -170.19,94.16 -46.93,48.25 -61.7,108.47 -70.76,193.34 -16.16,151.18 16.44,323.93 -216.5,313.34 -64.64,-2.94 -185.51,-30.03 -241.1,-21.45l-109.74 22.69c-51.81,20.89 -94.42,170.4 -149.17,247.43 -20.02,28.17 -38.49,47.49 -62.01,70.13 -25.45,24.49 -55.87,40.01 -67.06,49.7 -5.87,5.09 -5.62,4.34 -8.4,10.86zm-1309.58 -974.14c-10.92,4.15 -21.19,48.4 -22.69,60.99 -2.84,23.87 5.6,131.32 11.33,155.42 5.62,23.69 11.58,45.24 17.6,68.48 30.69,118.48 30.36,125.47 116.16,223.32 91.12,103.92 271.91,223.31 386.42,290.17 70.87,41.38 146.58,78.83 218.92,118.28 73.8,40.25 147.83,78.5 221.05,118.21 126.27,68.45 260.94,136.43 384.42,208.5 14.33,8.37 14.93,4.18 26.29,-4.89l46.79 -39.16c26.13,-25.52 -29.91,-54.18 -51.62,-63.4 -42.24,-17.93 -78.95,-30.76 -114.82,-54.88 -19.44,-13.07 -68.83,-62.53 -88.95,-80.76 -13.27,-12.03 -29.98,-28.59 -41.82,-41.95 -13.03,-14.72 -23.39,-33.04 -33.98,-52.01 -37.37,-66.9 -74.02,-178.36 -119.8,-217.26 -62.53,-53.13 -200.57,-37.56 -290.18,-25.54 -103.76,13.92 -207.5,32.51 -285.23,-27.12 -74.19,-56.9 -64.29,-152.93 -73.98,-265.84 -15.19,-177.23 -37.19,-257.25 -179.66,-328.99 -20.55,-10.35 -102.62,-50.55 -126.25,-41.57zm269.25 3925.79c36.86,3.12 72.47,7.88 109.84,10.63 173.58,12.79 364.05,-9.28 528.36,-60.31 29.74,-9.24 158.8,-53.03 173.29,-66.51 -62.61,-35.9 -146.18,-102.88 -197.1,-153.25 -195.89,-193.76 -293.53,-450.31 -332.47,-725.88 -19.65,-139.09 -29.54,-298.44 -25,-443.32 5.03,-160.47 5.22,-272.45 50.71,-418.07 85.58,-273.97 298.85,-489.09 520.41,-652.08l103.1 -73.14c7,-4.77 30.34,-19.83 34.24,-24.68 -14.5,-13.56 -301.08,-162.57 -324.75,-174.82 -149.5,-77.31 -345.12,-177.34 -486.88,-264.53 -26.63,-16.38 -51.37,-31.63 -77.51,-48.18 -104.84,-66.39 -130.08,-90.98 -217.11,-159.73 -4.82,-3.81 -12.92,-9.63 -17.18,-13.72l-107.32 -112.02 265.36 3379.6zm263.71 127.28l140.28 16.63c323.07,29.68 750.02,31.16 1073.31,1.4 28.31,-2.6 119.02,-9.14 139.12,-16.47 -224.6,-29.85 -432.92,-67.31 -638.35,-158.08 -50.91,-22.49 -34.52,-24.49 -75,-4.63 -139.76,68.58 -289.37,116.74 -444.43,141.68 -86.42,13.9 -121.81,11.09 -194.93,19.47zm106.94 -1563.72c-0.03,234.19 12.02,475.48 85.44,688.49 45.18,131.08 97.84,235.78 182.7,337.29 19.85,23.74 64.03,70.71 85.42,88.67 68.5,57.53 117.63,98.86 203.12,142.95 78.45,40.46 153.9,72.73 244.18,101.83 152.36,49.11 430.88,102.51 592.24,102.51 28.85,0 111.5,1.1 131.02,-6.15l260.84 -3364.93c-12.61,19.69 -58.2,74.57 -75.06,95.14 -7.78,9.48 -19.13,22.72 -26.88,30.4 -39.77,39.38 -74.01,75.95 -118.19,113.2 -190.24,160.38 -436.77,308 -656.76,438.53 -12.05,7.16 -24.64,16.08 -36.91,22.63 -77.38,41.3 -70.32,35.8 -143.15,88.14 -44.79,32.19 -91.53,60.94 -136.37,92.84 -46.86,33.33 -89.59,64.64 -132.66,98.76 -169.04,133.95 -330.07,306.35 -405.4,520.33 -45.73,129.9 -53.59,259.83 -53.6,409.36z"/>
 </g>
</svg>
