<svg width="49" height="49" viewBox="0 0 49 49" fill="none" xmlns="http://www.w3.org/2000/svg">
<path fill-rule="evenodd" clip-rule="evenodd" d="M44.0257 27.7C41.4377 31.51 38.8917 32.308 35.7497 33.291C33.9037 33.869 31.8507 34.511 29.4617 35.869C27.5217 36.971 25.7757 38.302 24.1047 39.576C19.7467 42.898 15.9017 45.83 10.4497 43.288C2.90573 39.77 1.32573 29.354 8.72373 16.556C16.1207 3.75999 27.7037 1.76599 36.4457 6.80699C45.1877 11.848 48.2767 20.346 44.0257 27.7Z" stroke="black" stroke-width="3" stroke-linecap="round" stroke-linejoin="round"/>
<path fill-rule="evenodd" clip-rule="evenodd" d="M22.4988 34.545C23.8458 33.53 25.4148 32.369 27.1838 31.373C29.6608 29.978 32.0098 29.251 33.6738 28.737C34.1598 28.587 34.5868 28.454 34.9418 28.328C36.4118 27.808 37.5078 27.234 38.7848 25.408C40.0848 23.114 40.2208 20.764 39.4148 18.564C38.5748 16.27 36.6118 13.898 33.3258 12.019C30.2408 10.255 26.7558 9.766 23.4238 10.753C20.1008 11.738 16.5808 14.3 13.6838 19.27C10.6538 24.47 9.68179 28.824 9.96179 31.948C10.2318 34.945 11.6108 36.796 13.6418 37.736C14.7388 38.243 15.5498 38.307 16.2268 38.214C16.9668 38.113 17.8028 37.787 18.8748 37.136C19.8648 36.535 20.8578 35.786 22.0718 34.868L22.4988 34.545Z" stroke="black" stroke-width="3" stroke-linecap="round" stroke-linejoin="round"/>
<path d="M29.9158 24.25C30.7114 24.25 31.4745 23.9339 32.0371 23.3713C32.5997 22.8087 32.9158 22.0456 32.9158 21.25C32.9158 20.4544 32.5997 19.6913 32.0371 19.1287C31.4745 18.5661 30.7114 18.25 29.9158 18.25C29.1201 18.25 28.3571 18.5661 27.7945 19.1287C27.2318 19.6913 26.9158 20.4544 26.9158 21.25C26.9158 22.0456 27.2318 22.8087 27.7945 23.3713C28.3571 23.9339 29.1201 24.25 29.9158 24.25Z" stroke="black" stroke-width="3" stroke-linecap="round" stroke-linejoin="round"/>
</svg>
