<svg width="49" height="49" viewBox="0 0 49 49" fill="none" xmlns="http://www.w3.org/2000/svg">
<path d="M4.91577 31.137C4.91577 20.647 12.8358 12.337 23.3258 12.256C24.3858 12.248 25.4458 12.248 26.5058 12.256C36.9958 12.336 44.9158 20.647 44.9158 31.137V31.251C44.9162 31.776 44.8131 32.296 44.6125 32.7811C44.4118 33.2663 44.1175 33.7072 43.7464 34.0785C43.3753 34.4499 42.9347 34.7445 42.4497 34.9455C41.9647 35.1465 41.4448 35.25 40.9198 35.25H24.9158H8.91177C8.38667 35.25 7.86672 35.1465 7.38165 34.9454C6.89657 34.7444 6.45588 34.4497 6.08476 34.0782C5.71364 33.7067 5.41938 33.2657 5.2188 32.7804C5.01822 32.2952 4.91525 31.7751 4.91577 31.25V31.137Z" stroke="black" stroke-width="3" stroke-linecap="round" stroke-linejoin="round"/>
<path d="M22.2188 12.296C21.4595 11.0951 20.8322 9.81566 20.3478 8.48C20.0598 7.686 20.4068 6.845 21.2248 6.637C22.0158 6.435 23.2058 6.25 24.9168 6.25C26.6288 6.25 27.8188 6.435 28.6078 6.637C29.4268 6.845 29.7728 7.686 29.4858 8.48C29.0014 9.81568 28.3741 11.0951 27.6148 12.296" stroke="black" stroke-width="3" stroke-linecap="round" stroke-linejoin="round"/>
<path d="M4.01174 37.885C4.24874 40.373 6.50775 41.959 9.00574 42.041C12.1407 42.143 17.2497 42.25 24.9157 42.25C32.5807 42.25 37.6897 42.143 40.8247 42.04C43.3227 41.959 45.5817 40.373 45.8187 37.885C45.9387 36.633 44.9497 35.582 43.6927 35.53C40.8617 35.414 35.0717 35.25 24.9157 35.25C14.7597 35.25 8.96974 35.414 6.13774 35.53C4.88174 35.582 3.89174 36.633 4.01174 37.885Z" stroke="black" stroke-width="3" stroke-linecap="round" stroke-linejoin="round"/>
<path d="M26.4158 17.75C31.2158 17.785 35.2388 20.164 37.4158 23.75" stroke="black" stroke-width="3" stroke-linecap="round" stroke-linejoin="round"/>
</svg>
