<svg width="49" height="49" viewBox="0 0 49 49" fill="none" xmlns="http://www.w3.org/2000/svg">
<path d="M32.4838 7.377C31.6688 6.11038 30.5488 5.06873 29.2265 4.34765C27.9042 3.62656 26.4219 3.24913 24.9158 3.25C23.4096 3.24913 21.9274 3.62656 20.6051 4.34765C19.2828 5.06873 18.1627 6.11038 17.3478 7.377C16.4632 6.55956 15.4054 5.95243 14.2533 5.60089C13.1013 5.24935 11.8848 5.16248 10.6945 5.34676C9.50418 5.53104 8.37087 5.98172 7.37907 6.66517C6.38727 7.34861 5.5626 8.24719 4.96658 9.29386C4.37056 10.3405 4.01857 11.5083 3.93688 12.71C3.85519 13.9117 4.0459 15.1163 4.49478 16.234C4.94366 17.3517 5.63914 18.3536 6.52931 19.165C7.41949 19.9764 8.48139 20.5763 9.63579 20.92C10.1999 28.1188 10.9268 35.304 11.8158 42.47C11.9858 43.83 13.0668 44.87 14.4358 44.958C16.5218 45.092 20.0158 45.25 24.9158 45.25C29.8158 45.25 33.3098 45.092 35.3958 44.957C36.7648 44.869 37.8458 43.829 38.0158 42.469C38.9048 35.3034 39.6316 28.1185 40.1958 20.92C41.3502 20.5763 42.4121 19.9764 43.3023 19.165C44.1924 18.3536 44.8879 17.3517 45.3368 16.234C45.7857 15.1163 45.9764 13.9117 45.8947 12.71C45.813 11.5083 45.461 10.3405 44.865 9.29386C44.269 8.24719 43.4443 7.34861 42.4525 6.66517C41.4607 5.98172 40.3274 5.53104 39.1371 5.34676C37.9468 5.16248 36.7303 5.24935 35.5782 5.60089C34.4262 5.95243 33.3684 6.55956 32.4838 7.377Z" stroke="" stroke-width="3" stroke-linecap="round" stroke-linejoin="round"/>
<path d="M38.6698 37.613C36.1128 37.48 31.8338 37.348 24.9168 37.348C17.9988 37.348 13.7198 37.48 11.1638 37.613" stroke="" stroke-width="3" stroke-linecap="round" stroke-linejoin="round"/>
<path d="M19.9158 21.25L20.9158 29.25" stroke="" stroke-width="3" stroke-linecap="round"/>
<path d="M29.9158 21.25L28.9158 29.25" stroke="" stroke-width="3" stroke-linecap="round"/>
</svg>
